<?xml version="1.0" standalone="no"?>
<!DOCTYPE svg PUBLIC "-//W3C//DTD SVG 1.1//EN"
  "http://www.w3.org/Graphics/SVG/1.1/DTD/svg11.dtd">
<svg width="9.270967483520508mm" height="6.927814483642578mm" viewBox="-27.32278823852539 47.57151794433592 9.270967483520508 6.927814483642578" xmlns="http://www.w3.org/2000/svg" version="1.1">
	<title>svgOutput</title>
	<desc>made with tinkercad</desc>
<path d="M -21.435836791992188 48.71435165405272 L -21.352113723754883 48.735317230224595 L -21.258644104003906 48.75862884521483 L -20.716459274291992 48.998386383056626 L -20.479999542236328 49.104389190673814 L -20.37380027770996 49.15200042724608 L -20.2125301361084 49.224296569824205 L -20.211313247680664 49.22484207153319 L -20.080123901367188 49.3317413330078 L -19.4919376373291 49.8090362548828 L -19.49009895324707 49.81233978271483 L -19.102981567382812 50.50802612304686 L -19.102779388427734 50.508388519287095 L -19.08968734741211 50.71956634521483 L -19.059494018554688 51.20000076293944 L -19.051820755004883 51.32212066650389 L -19.189794540405273 51.770053863525376 L -19.520519256591797 52.290622711181626 L -19.81363868713379 52.59019470214842 L -20.144468307495117 52.79029846191405 L -20.479999542236328 52.99389266967772 L -20.661968231201172 53.10430526733397 L -20.665353775024414 53.10535430908202 L -21.124813079833984 53.2480010986328 L -21.275171279907227 53.29468154907225 L -21.64669418334961 53.40929031372069 L -22.21649932861328 53.45596313476561 L -22.7547550201416 53.4993324279785 L -23.066831588745117 53.46680450439452 L -23.65284538269043 53.40837478637694 L -23.67571449279785 53.403339385986314 L -23.846973419189453 53.365634918212876 L -23.990514755249023 53.33362197875975 L -24.198820114135742 53.2480010986328 L -24.52417755126953 53.11426544189452 L -24.576000213623047 53.092990875244126 L -24.981708526611328 52.92641448974608 L -24.98243522644043 52.92590713500975 L -25.152082443237305 52.80702209472655 L -25.475624084472656 52.57972717285155 L -25.692569732666016 52.38817977905272 L -25.776185989379883 52.31458663940428 L -25.776491165161133 52.31408309936522 L -26.0936336517334 51.79187774658202 L -26.19677734375 51.6231117248535 L -26.19702911376953 51.62162780761717 L -26.2685604095459 51.20000076293944 L -26.309223175048828 50.96033477783202 L -26.32278823852539 50.87752532958983 L -26.2906551361084 50.72991561889647 L -26.290571212768555 50.72953033447264 L -26.01618194580078 50.04545593261717 L -26.015857696533203 50.04505157470702 L -25.75665283203125 49.7230987548828 L -25.753999710083008 49.7198028564453 L -25.250749588012695 49.303501129150376 L -25.078950881958008 49.16100692749022 L -25.060617446899414 49.15200042724608 L -24.706499099731445 48.978000640869126 L -24.576000213623047 48.92309951782225 L -24.32643699645996 48.818107604980455 L -24.262187957763672 48.80216979980467 L -23.50119400024414 48.61471557617186 L -23.500492095947266 48.61454010009764 L -23.46238899230957 48.61098480224608 L -23.29460334777832 48.59486389160155 L -23.289142608642578 48.59433746337889 L -22.741365432739258 48.57736968994139 L -22.55620765686035 48.57151794433592 L -22.527999877929688 48.57508087158202 L -22.05087661743164 48.63537216186522 L -21.4365291595459 48.71426391601561 L -21.435836791992188 48.71435165405272 z" fill="none" stroke="rgb(255,0,0)" stroke-width="0.001mm" />
</svg>